<svg width="203" height="234" viewBox="0 0 203 234" fill="none" xmlns="http://www.w3.org/2000/svg">
<path d="M63.5234 207.581L157.383 154.042V32.9434L201.776 58.5878V179.312L105.678 232.85L63.5234 207.581Z" fill="#0E1A55"/>
<path d="M43.0802 195.508V107.252L121.346 154.117L142.685 142.195V26.1946L99.0379 1V87.7563L24.0546 41.6412L1 56.1881V171.063L43.0802 195.508Z" fill="#172A88"/>
<path d="M63.5234 207.581L157.383 154.042V32.9434L201.776 58.5878V179.312L105.678 232.85L63.5234 207.581Z" stroke="#0C0E08"/>
<path d="M43.0802 195.508V107.252L121.346 154.117L142.685 142.195V26.1946L99.0379 1V87.7563L24.0546 41.6412L1 56.1881V171.063L43.0802 195.508Z" stroke="#0C0E08"/>
</svg>
